# xmcd CD database file
#
# Track frame offsets:
#	187
#	13700
#	28375
#	43375
#	54700
#	72937
#	87212
#	99975
#	121087
#	134450
#	152700
#	165600
#
# Disc length: 2357 seconds
#
# Revision: 1
# Processed by: cddbd v1.5.2PL0 Copyright (c) Steve Scherf et al.
# Submitted via: CDex 1.70beta2
#
DISCID=a109330c
DTITLE=Oscar Peterson - Romance
DYEAR=1952
DGENRE=Jazz
TTITLE0=I'm glad there is you
TTITLE1=Polka dots and moonbeams
TTITLE2=One for my baby
TTITLE3=I hear music
TTITLE4=Autumn in new york
TTITLE5=I cant ive you anything but love
TTITLE6=spring is here
TTITLE7=there foolish things
TTITLE8=from this moment on
TTITLE9=the things we did last summer
TTITLE10=too marvekous for words
TTITLE11=but not for me
EXTD=YEAR: 1952
EXTT0=
EXTT1=
EXTT2=
EXTT3=
EXTT4=
EXTT5=
EXTT6=
EXTT7=
EXTT8=
EXTT9=
EXTT10=
EXTT11=
PLAYORDER=
